<mxfile host="app.diagrams.net" modified="2022-09-01T18:54:14.096Z" agent="5.0 (Windows)" etag="6gc69JEeoM9Om67wY3C3" version="20.2.7" type="github">
  <diagram name="Page-1" id="c4acf3e9-155e-7222-9cf6-157b1a14988f">
    <mxGraphModel dx="1673" dy="885" grid="1" gridSize="10" guides="1" tooltips="1" connect="1" arrows="1" fold="1" page="1" pageScale="1" pageWidth="850" pageHeight="1100" background="none" math="0" shadow="0">
      <root>
        <mxCell id="0" />
        <mxCell id="1" parent="0" />
        <mxCell id="A9Vpy4jNfyYsWNiMMwb1-9" value="&lt;p style=&quot;margin:0px;margin-top:4px;text-align:center;&quot;&gt;&lt;i&gt;&amp;lt;&amp;lt;Enum&amp;gt;&amp;gt;&lt;/i&gt;&lt;br&gt;&lt;b&gt;SectionType&lt;/b&gt;&lt;/p&gt;&lt;hr size=&quot;1&quot;&gt;&lt;p style=&quot;margin:0px;margin-left:4px;&quot;&gt;+ &lt;u&gt;OBJECTIVE&lt;/u&gt;: SectionType&lt;br&gt;+ &lt;u&gt;PERSONAL&lt;/u&gt;: SectionType&lt;br&gt;+ &lt;u&gt;ACHIEVEMENTS&lt;/u&gt;: SectionType&lt;br&gt;+ &lt;u&gt;QUALIFICATIONS&lt;/u&gt;: SectionType&lt;br&gt;+ &lt;u&gt;EXPERIENCE&lt;/u&gt;: SectionType&lt;br&gt;+ &lt;u&gt;EDUCATION&lt;/u&gt;: SectionType&lt;/p&gt;&lt;p style=&quot;margin:0px;margin-left:4px;&quot;&gt;- title: String&lt;br&gt;&lt;/p&gt;" style="verticalAlign=top;align=left;overflow=fill;fontSize=12;fontFamily=Helvetica;html=1;" vertex="1" parent="1">
          <mxGeometry x="40" y="65" width="200" height="160" as="geometry" />
        </mxCell>
        <mxCell id="A9Vpy4jNfyYsWNiMMwb1-10" value="&lt;p style=&quot;margin:0px;margin-top:4px;text-align:center;&quot;&gt;&lt;i&gt;&amp;lt;&amp;lt;Enum&amp;gt;&amp;gt;&lt;/i&gt;&lt;br&gt;&lt;b&gt;ContactType&lt;/b&gt;&lt;/p&gt;&lt;hr size=&quot;1&quot;&gt;&lt;p style=&quot;margin:0px;margin-left:4px;&quot;&gt;+ &lt;u&gt;PHONE&lt;/u&gt;: ContactType&lt;br&gt;+ &lt;u&gt;SKYPE&lt;/u&gt;: ContactType&lt;br&gt;+ &lt;u&gt;MAIL&lt;/u&gt;: ContactType&lt;br&gt;+ &lt;u&gt;LINKEDIN&lt;/u&gt;: ContactType&lt;br&gt;+ &lt;u&gt;GITHUB&lt;/u&gt;: ContactType&lt;br&gt;+ &lt;u&gt;STACKOVERFLOW&lt;/u&gt;: ContactType&lt;/p&gt;&lt;p style=&quot;margin:0px;margin-left:4px;&quot;&gt;+ &lt;u&gt;HOMEPAGE&lt;/u&gt;: ContactType&lt;br&gt;&lt;/p&gt;&lt;p style=&quot;margin:0px;margin-left:4px;&quot;&gt;- title: String&lt;br&gt;&lt;/p&gt;" style="verticalAlign=top;align=left;overflow=fill;fontSize=12;fontFamily=Helvetica;html=1;" vertex="1" parent="1">
          <mxGeometry x="280" y="55" width="200" height="170" as="geometry" />
        </mxCell>
        <mxCell id="A9Vpy4jNfyYsWNiMMwb1-11" value="&lt;p style=&quot;margin:0px;margin-top:4px;text-align:center;&quot;&gt;&lt;i&gt;&amp;lt;&amp;lt;Class&amp;gt;&amp;gt;&lt;/i&gt;&lt;br&gt;&lt;b&gt;Resume&lt;/b&gt;&lt;/p&gt;&lt;hr size=&quot;1&quot;&gt;&lt;p style=&quot;margin:0px;margin-left:4px;&quot;&gt;- uuid: String&lt;br&gt;- fullName: String&lt;br&gt;- sections: Map&amp;lt;SectionType, Section&amp;gt;&lt;br&gt;- contracts: Map&amp;lt;ContactType, String&amp;gt;&lt;/p&gt;" style="verticalAlign=top;align=left;overflow=fill;fontSize=12;fontFamily=Helvetica;html=1;" vertex="1" parent="1">
          <mxGeometry x="130" y="360" width="230" height="110" as="geometry" />
        </mxCell>
        <mxCell id="A9Vpy4jNfyYsWNiMMwb1-13" value="" style="endArrow=diamondThin;endFill=1;endSize=24;html=1;entryX=0.826;entryY=0;entryDx=0;entryDy=0;entryPerimeter=0;exitX=0.155;exitY=0.999;exitDx=0;exitDy=0;exitPerimeter=0;rounded=0;" edge="1" parent="1" source="A9Vpy4jNfyYsWNiMMwb1-10">
          <mxGeometry width="160" relative="1" as="geometry">
            <mxPoint x="310" y="215" as="sourcePoint" />
            <mxPoint x="309.98000000000025" y="359.9999999999999" as="targetPoint" />
          </mxGeometry>
        </mxCell>
        <mxCell id="A9Vpy4jNfyYsWNiMMwb1-14" value="1" style="text;html=1;align=center;verticalAlign=middle;resizable=0;points=[];autosize=1;strokeColor=none;fillColor=none;" vertex="1" parent="1">
          <mxGeometry x="280" y="330" width="30" height="30" as="geometry" />
        </mxCell>
        <mxCell id="A9Vpy4jNfyYsWNiMMwb1-15" value="*" style="text;html=1;align=center;verticalAlign=middle;resizable=0;points=[];autosize=1;strokeColor=none;fillColor=none;" vertex="1" parent="1">
          <mxGeometry x="280" y="225" width="30" height="30" as="geometry" />
        </mxCell>
        <mxCell id="A9Vpy4jNfyYsWNiMMwb1-16" value="" style="endArrow=diamondThin;endFill=1;endSize=24;html=1;exitX=0.75;exitY=1;exitDx=0;exitDy=0;curved=1;entryX=0.261;entryY=0;entryDx=0;entryDy=0;entryPerimeter=0;" edge="1" parent="1" source="A9Vpy4jNfyYsWNiMMwb1-9" target="A9Vpy4jNfyYsWNiMMwb1-11">
          <mxGeometry width="160" relative="1" as="geometry">
            <mxPoint x="280" y="225" as="sourcePoint" />
            <mxPoint x="190" y="320" as="targetPoint" />
          </mxGeometry>
        </mxCell>
        <mxCell id="A9Vpy4jNfyYsWNiMMwb1-17" value="1" style="text;html=1;align=center;verticalAlign=middle;resizable=0;points=[];autosize=1;strokeColor=none;fillColor=none;" vertex="1" parent="1">
          <mxGeometry x="160" y="330" width="30" height="30" as="geometry" />
        </mxCell>
        <mxCell id="A9Vpy4jNfyYsWNiMMwb1-18" value="*" style="text;html=1;align=center;verticalAlign=middle;resizable=0;points=[];autosize=1;strokeColor=none;fillColor=none;" vertex="1" parent="1">
          <mxGeometry x="160" y="225" width="30" height="30" as="geometry" />
        </mxCell>
        <mxCell id="A9Vpy4jNfyYsWNiMMwb1-20" value="&lt;p style=&quot;margin:0px;margin-top:4px;text-align:center;&quot;&gt;&lt;i&gt;&amp;lt;&amp;lt;Abstract Class&amp;gt;&amp;gt;&lt;/i&gt;&lt;br&gt;&lt;b&gt;Section&lt;/b&gt;&lt;/p&gt;&lt;hr size=&quot;1&quot;&gt;" style="verticalAlign=top;align=left;overflow=fill;fontSize=12;fontFamily=Helvetica;html=1;" vertex="1" parent="1">
          <mxGeometry x="520" y="55" width="200" height="35" as="geometry" />
        </mxCell>
        <mxCell id="A9Vpy4jNfyYsWNiMMwb1-21" value="" style="endArrow=diamondThin;endFill=1;endSize=24;html=1;entryX=0.913;entryY=0;entryDx=0;entryDy=0;entryPerimeter=0;rounded=0;exitX=0.1;exitY=1;exitDx=0;exitDy=0;exitPerimeter=0;" edge="1" parent="1" source="A9Vpy4jNfyYsWNiMMwb1-20" target="A9Vpy4jNfyYsWNiMMwb1-11">
          <mxGeometry width="160" relative="1" as="geometry">
            <mxPoint x="540" y="100" as="sourcePoint" />
            <mxPoint x="400" y="320" as="targetPoint" />
            <Array as="points">
              <mxPoint x="540" y="300" />
              <mxPoint x="340" y="300" />
            </Array>
          </mxGeometry>
        </mxCell>
        <mxCell id="A9Vpy4jNfyYsWNiMMwb1-22" value="1" style="text;html=1;align=center;verticalAlign=middle;resizable=0;points=[];autosize=1;strokeColor=none;fillColor=none;" vertex="1" parent="1">
          <mxGeometry x="340" y="330" width="30" height="30" as="geometry" />
        </mxCell>
        <mxCell id="A9Vpy4jNfyYsWNiMMwb1-23" value="*" style="text;html=1;align=center;verticalAlign=middle;resizable=0;points=[];autosize=1;strokeColor=none;fillColor=none;" vertex="1" parent="1">
          <mxGeometry x="510" y="90" width="30" height="30" as="geometry" />
        </mxCell>
        <mxCell id="A9Vpy4jNfyYsWNiMMwb1-24" value="&lt;p style=&quot;margin:0px;margin-top:4px;text-align:center;&quot;&gt;&lt;i&gt;&amp;lt;&amp;lt;Class&amp;gt;&amp;gt;&lt;/i&gt;&lt;br&gt;&lt;b&gt;ListSection&lt;/b&gt;&lt;/p&gt;&lt;hr size=&quot;1&quot;&gt;&lt;p style=&quot;margin:0px;margin-left:4px;&quot;&gt;- list: List&amp;lt;String&amp;gt;&lt;br&gt;&lt;/p&gt;" style="verticalAlign=top;align=left;overflow=fill;fontSize=12;fontFamily=Helvetica;html=1;" vertex="1" parent="1">
          <mxGeometry x="640" y="240" width="200" height="80" as="geometry" />
        </mxCell>
        <mxCell id="A9Vpy4jNfyYsWNiMMwb1-25" value="&lt;p style=&quot;margin:0px;margin-top:4px;text-align:center;&quot;&gt;&lt;i&gt;&amp;lt;&amp;lt;Class&amp;gt;&amp;gt;&lt;/i&gt;&lt;br&gt;&lt;b&gt;TextSection&lt;/b&gt;&lt;/p&gt;&lt;hr size=&quot;1&quot;&gt;&lt;p style=&quot;margin:0px;margin-left:4px;&quot;&gt;- text: String&lt;br&gt;&lt;/p&gt;" style="verticalAlign=top;align=left;overflow=fill;fontSize=12;fontFamily=Helvetica;html=1;" vertex="1" parent="1">
          <mxGeometry x="640" y="120" width="200" height="80" as="geometry" />
        </mxCell>
        <mxCell id="A9Vpy4jNfyYsWNiMMwb1-26" value="" style="endArrow=block;endSize=16;endFill=0;html=1;rounded=0;entryX=0.5;entryY=1;entryDx=0;entryDy=0;exitX=0;exitY=0.5;exitDx=0;exitDy=0;" edge="1" parent="1" source="A9Vpy4jNfyYsWNiMMwb1-25" target="A9Vpy4jNfyYsWNiMMwb1-20">
          <mxGeometry x="-0.0383" y="40" width="160" relative="1" as="geometry">
            <mxPoint x="380" y="230" as="sourcePoint" />
            <mxPoint x="540" y="230" as="targetPoint" />
            <Array as="points">
              <mxPoint x="620" y="160" />
            </Array>
            <mxPoint x="20" y="35" as="offset" />
          </mxGeometry>
        </mxCell>
        <mxCell id="A9Vpy4jNfyYsWNiMMwb1-27" value="" style="endArrow=block;endSize=16;endFill=0;html=1;rounded=0;entryX=0.5;entryY=1;entryDx=0;entryDy=0;exitX=0;exitY=0.5;exitDx=0;exitDy=0;" edge="1" parent="1" source="A9Vpy4jNfyYsWNiMMwb1-24">
          <mxGeometry x="-0.0383" y="40" width="160" relative="1" as="geometry">
            <mxPoint x="680" y="160" as="sourcePoint" />
            <mxPoint x="620" y="90" as="targetPoint" />
            <Array as="points">
              <mxPoint x="620" y="280" />
            </Array>
            <mxPoint x="20" y="35" as="offset" />
          </mxGeometry>
        </mxCell>
        <mxCell id="A9Vpy4jNfyYsWNiMMwb1-28" value="" style="endArrow=block;endSize=16;endFill=0;html=1;rounded=0;" edge="1" parent="1">
          <mxGeometry x="-0.0383" y="40" width="160" relative="1" as="geometry">
            <mxPoint x="620" y="400" as="sourcePoint" />
            <mxPoint x="620" y="90" as="targetPoint" />
            <Array as="points">
              <mxPoint x="620" y="300" />
            </Array>
            <mxPoint x="20" y="35" as="offset" />
          </mxGeometry>
        </mxCell>
        <mxCell id="A9Vpy4jNfyYsWNiMMwb1-29" value="&lt;p style=&quot;margin:0px;margin-top:4px;text-align:center;&quot;&gt;&lt;i&gt;&amp;lt;&amp;lt;Class&amp;gt;&amp;gt;&lt;/i&gt;&lt;br&gt;&lt;b&gt;CompanyListSection&lt;/b&gt;&lt;/p&gt;&lt;hr size=&quot;1&quot;&gt;&lt;p style=&quot;margin:0px;margin-left:4px;&quot;&gt;- companies: List&amp;lt;Company&amp;gt;&lt;br&gt;&lt;/p&gt;" style="verticalAlign=top;align=left;overflow=fill;fontSize=12;fontFamily=Helvetica;html=1;" vertex="1" parent="1">
          <mxGeometry x="520" y="340" width="200" height="80" as="geometry" />
        </mxCell>
        <mxCell id="A9Vpy4jNfyYsWNiMMwb1-30" value="&lt;p style=&quot;margin:0px;margin-top:4px;text-align:center;&quot;&gt;&lt;i&gt;&amp;lt;&amp;lt;Class&amp;gt;&amp;gt;&lt;/i&gt;&lt;br&gt;&lt;b&gt;Company&lt;/b&gt;&lt;/p&gt;&lt;hr size=&quot;1&quot;&gt;&lt;p style=&quot;margin:0px;margin-left:4px;&quot;&gt;- name: String&lt;/p&gt;&lt;p style=&quot;margin:0px;margin-left:4px;&quot;&gt;- website: String&lt;/p&gt;&lt;p style=&quot;margin:0px;margin-left:4px;&quot;&gt;- periods: List&amp;lt;Period&amp;gt;&lt;br&gt;&lt;/p&gt;" style="verticalAlign=top;align=left;overflow=fill;fontSize=12;fontFamily=Helvetica;html=1;" vertex="1" parent="1">
          <mxGeometry x="520" y="480" width="200" height="100" as="geometry" />
        </mxCell>
        <mxCell id="A9Vpy4jNfyYsWNiMMwb1-31" value="&lt;p style=&quot;margin:0px;margin-top:4px;text-align:center;&quot;&gt;&lt;i&gt;&amp;lt;&amp;lt;Class&amp;gt;&amp;gt;&lt;/i&gt;&lt;br&gt;&lt;b&gt;Period&lt;/b&gt;&lt;/p&gt;&lt;hr size=&quot;1&quot;&gt;&lt;p style=&quot;margin:0px;margin-left:4px;&quot;&gt;- title: String&lt;/p&gt;&lt;p style=&quot;margin:0px;margin-left:4px;&quot;&gt;- beginDate: LocalDate&lt;/p&gt;&lt;p style=&quot;margin:0px;margin-left:4px;&quot;&gt;- endDate: LocalDate&lt;/p&gt;&lt;p style=&quot;margin:0px;margin-left:4px;&quot;&gt;- description: String&lt;br&gt;&lt;/p&gt;" style="verticalAlign=top;align=left;overflow=fill;fontSize=12;fontFamily=Helvetica;html=1;" vertex="1" parent="1">
          <mxGeometry x="520" y="640" width="200" height="120" as="geometry" />
        </mxCell>
        <mxCell id="A9Vpy4jNfyYsWNiMMwb1-32" value="" style="endArrow=diamondThin;endFill=1;endSize=24;html=1;curved=1;entryX=0.5;entryY=1;entryDx=0;entryDy=0;" edge="1" parent="1" source="A9Vpy4jNfyYsWNiMMwb1-30" target="A9Vpy4jNfyYsWNiMMwb1-29">
          <mxGeometry width="160" relative="1" as="geometry">
            <mxPoint x="430" y="410" as="sourcePoint" />
            <mxPoint x="620" y="440" as="targetPoint" />
          </mxGeometry>
        </mxCell>
        <mxCell id="A9Vpy4jNfyYsWNiMMwb1-33" value="1" style="text;html=1;align=center;verticalAlign=middle;resizable=0;points=[];autosize=1;strokeColor=none;fillColor=none;" vertex="1" parent="1">
          <mxGeometry x="590" y="420" width="30" height="30" as="geometry" />
        </mxCell>
        <mxCell id="A9Vpy4jNfyYsWNiMMwb1-34" value="*" style="text;html=1;align=center;verticalAlign=middle;resizable=0;points=[];autosize=1;strokeColor=none;fillColor=none;" vertex="1" parent="1">
          <mxGeometry x="590" y="450" width="30" height="30" as="geometry" />
        </mxCell>
        <mxCell id="A9Vpy4jNfyYsWNiMMwb1-35" value="" style="endArrow=diamondThin;endFill=1;endSize=24;html=1;curved=1;entryX=0.5;entryY=1;entryDx=0;entryDy=0;" edge="1" parent="1">
          <mxGeometry width="160" relative="1" as="geometry">
            <mxPoint x="619.17" y="640" as="sourcePoint" />
            <mxPoint x="619.17" y="580" as="targetPoint" />
          </mxGeometry>
        </mxCell>
        <mxCell id="A9Vpy4jNfyYsWNiMMwb1-36" value="1" style="text;html=1;align=center;verticalAlign=middle;resizable=0;points=[];autosize=1;strokeColor=none;fillColor=none;" vertex="1" parent="1">
          <mxGeometry x="589.17" y="580" width="30" height="30" as="geometry" />
        </mxCell>
        <mxCell id="A9Vpy4jNfyYsWNiMMwb1-37" value="*" style="text;html=1;align=center;verticalAlign=middle;resizable=0;points=[];autosize=1;strokeColor=none;fillColor=none;" vertex="1" parent="1">
          <mxGeometry x="589.17" y="610" width="30" height="30" as="geometry" />
        </mxCell>
      </root>
    </mxGraphModel>
  </diagram>
</mxfile>
